<?xml version="1.0" encoding="UTF-8" standalone="no"?>
<!-- Created with Inkscape (http://www.inkscape.org/) -->

<svg
   width="100mm"
   height="100mm"
   viewBox="0 0 100 100"
   version="1.1"
   id="svg5"
   xml:space="preserve"
   inkscape:version="1.2.2 (b0a8486541, 2022-12-01)"
   sodipodi:docname="maudpack.svg"
   inkscape:export-filename="maudpack.png"
   inkscape:export-xdpi="130.048"
   inkscape:export-ydpi="130.048"
   xmlns:inkscape="http://www.inkscape.org/namespaces/inkscape"
   xmlns:sodipodi="http://sodipodi.sourceforge.net/DTD/sodipodi-0.dtd"
   xmlns:xlink="http://www.w3.org/1999/xlink"
   xmlns="http://www.w3.org/2000/svg"
   xmlns:svg="http://www.w3.org/2000/svg"><sodipodi:namedview
     id="namedview7"
     pagecolor="#ffffff"
     bordercolor="#000000"
     borderopacity="0.25"
     inkscape:showpageshadow="2"
     inkscape:pageopacity="0.0"
     inkscape:pagecheckerboard="true"
     inkscape:deskcolor="#d1d1d1"
     inkscape:document-units="mm"
     showgrid="false"
     inkscape:zoom="1.5625561"
     inkscape:cx="122.87559"
     inkscape:cy="268.15037"
     inkscape:window-width="2558"
     inkscape:window-height="1389"
     inkscape:window-x="0"
     inkscape:window-y="0"
     inkscape:window-maximized="1"
     inkscape:current-layer="layer1" /><defs
     id="defs2"><linearGradient
       inkscape:collect="always"
       id="linearGradient3610"><stop
         style="stop-color:#ffffff;stop-opacity:0.73581296;"
         offset="0"
         id="stop3606" /><stop
         style="stop-color:#ffffff;stop-opacity:1;"
         offset="0.7492857"
         id="stop3608" /></linearGradient><linearGradient
       inkscape:collect="always"
       id="linearGradient1911"><stop
         style="stop-color:#9986b9;stop-opacity:1;"
         offset="0"
         id="stop1907" /><stop
         style="stop-color:#b4a8ca;stop-opacity:1;"
         offset="1"
         id="stop1909" /></linearGradient><linearGradient
       inkscape:collect="always"
       xlink:href="#linearGradient1911"
       id="linearGradient1913"
       x1="104.95"
       y1="88.832161"
       x2="205.05"
       y2="88.832161"
       gradientUnits="userSpaceOnUse"
       gradientTransform="translate(-235.74358,58.612067)" /><linearGradient
       inkscape:collect="always"
       xlink:href="#linearGradient3610"
       id="linearGradient3612"
       x1="-130.74346"
       y1="133.24385"
       x2="-67.666685"
       y2="133.24385"
       gradientUnits="userSpaceOnUse" /></defs><g
     inkscape:label="Layer 1"
     inkscape:groupmode="layer"
     id="layer1"
     transform="translate(-97.444229,-30.743591)"><rect
       style="fill:url(#linearGradient1913);fill-opacity:1;fill-rule:evenodd;stroke:none;stroke-width:0.1"
       id="rect231"
       width="100"
       height="100"
       x="-130.74359"
       y="97.444229"
       transform="rotate(-90)"
       rx="10" /><path
       id="rect2142"
       style="fill:url(#linearGradient3612);fill-opacity:1;fill-rule:evenodd;stroke:none;stroke-width:0.1"
       d="m -130.74344,133.50193 c 0.0133,0.0173 0.0265,0.0349 0.0398,0.0522 0.31012,0.40329 0.62222,0.80381 0.93586,1.20096 0.31364,0.39716 0.62903,0.79082 0.9462,1.18184 0.31716,0.39103 0.63584,0.77938 0.95653,1.16427 0.32068,0.3849 0.64317,0.76638 0.96738,1.14515 0.32421,0.37877 0.65049,0.75441 0.97823,1.12706 0.32775,0.37266 0.6573,0.74245 0.98857,1.10898 0.33128,0.36653 0.6641,0.72995 0.99891,1.09037 0.33481,0.36042 0.67141,0.71798 1.00976,1.07229 0.33835,0.35431 0.6782,0.70548 1.02009,1.05368 0.34189,0.3482 0.68602,0.6935 1.03146,1.0356 0.34544,0.34209 0.6923,0.68099 1.04128,1.01699 0.34899,0.336 0.70012,0.66901 1.05265,0.99891 0.35254,0.32989 0.70638,0.65649 1.06247,0.9803 0.35609,0.3238 0.71419,0.6445 1.07383,0.96221 0.35965,0.31772 0.72097,0.63251 1.08418,0.94413 0.3632,0.31163 0.72826,0.6205 1.09502,0.92604 0.36676,0.30554 0.73555,0.60798 1.10588,0.90744 0.37032,0.29946 0.74231,0.59597 1.11621,0.88935 0.37389,0.29339 0.74959,0.58344 1.12706,0.87075 0.37747,0.28731 0.75636,0.57142 1.1374,0.85266 0.38104,0.28124 0.76415,0.55992 1.14876,0.83509 0.38462,0.27517 0.77091,0.54687 1.15911,0.81597 0.38819,0.26911 0.77818,0.53536 1.16995,0.7984 0.39178,0.26305 0.78545,0.52333 1.18081,0.78032 0.39536,0.25699 0.79271,0.51077 1.19166,0.76171 0.39894,0.25094 0.79945,0.49874 1.20199,0.74362 0.40254,0.24489 0.80671,0.4867 1.21285,0.72554 0.40613,0.23884 0.81397,0.47465 1.22369,0.70745 0.40973,0.2328 0.821744,0.46261 1.235071,0.68936 0.413326,0.22676 0.828473,0.45056 1.245402,0.67128 0.416928,0.22072 0.835204,0.43851 1.255737,0.65319 0.420533,0.21469 0.842965,0.42645 1.267106,0.6351 0.424141,0.20866 0.850207,0.41439 1.277958,0.61702 0.427752,0.20263 0.857446,0.40181 1.28881,0.59841 0.431365,0.19661 0.864165,0.39026 1.299146,0.58085 0.434981,0.19058 0.871914,0.37819 1.310514,0.56275 0.376287,0.15835 0.815394,0.33585 1.296045,0.52504 0.480651,0.18918 1.002748,0.39042 1.545126,0.59531 1.084755,0.40977 2.250572,0.83569 3.326411,1.2175 0.53792,0.1909 1.053237,0.37053 1.524972,0.53175 0.471735,0.16121 0.90006,0.30374 1.262972,0.42013 0.362912,0.11638 0.660329,0.20659 0.871781,0.26303 0.105726,0.0282 0.190248,0.048 0.250114,0.0584 0.05987,0.0104 0.09519,0.0114 0.10387,0.002 0.02617,-0.0281 0.06808,-0.10407 0.121956,-0.21807 0.05387,-0.11401 0.119771,-0.26607 0.193787,-0.44546 0.148033,-0.35877 0.328865,-0.82776 0.512113,-1.32498 0.183249,-0.49722 0.369116,-1.02238 0.5271,-1.49397 0.07899,-0.23579 0.151055,-0.45819 0.21239,-0.6568 0.06134,-0.19862 0.111676,-0.37377 0.147795,-0.5147 0.04801,-0.18732 0.098,-0.36579 0.147278,-0.52813 0.04928,-0.16235 0.09804,-0.30839 0.143143,-0.43098 0.0451,-0.1226 0.08648,-0.22185 0.121957,-0.28991 0.01774,-0.034 0.03426,-0.0599 0.04858,-0.0775 0.01431,-0.0176 0.02649,-0.027 0.03669,-0.0264 0.02041,0.001 0.05875,0.0133 0.110071,0.0336 0.05132,0.0203 0.115754,0.0486 0.189135,0.0837 0.146764,0.0701 0.328663,0.16577 0.510563,0.26975 0.0946,0.0541 0.190148,0.10276 0.286805,0.14573 0.09666,0.043 0.194513,0.0806 0.293005,0.11265 0.09849,0.0321 0.19807,0.0587 0.298173,0.0801 0.100103,0.0214 0.200818,0.0376 0.302307,0.0486 0.101489,0.011 0.203275,0.0163 0.305925,0.0171 0.10265,7.2e-4 0.205955,-0.004 0.309542,-0.0129 0.103586,-0.009 0.207827,-0.0233 0.312125,-0.0424 0.104299,-0.0191 0.208891,-0.0431 0.313676,-0.0718 0.104785,-0.0287 0.209662,-0.0622 0.31471,-0.10025 0.105047,-0.038 0.210141,-0.0805 0.315226,-0.12764 0.105085,-0.0472 0.210329,-0.0989 0.315226,-0.15503 0.104898,-0.0561 0.209707,-0.11656 0.314193,-0.18138 0.104485,-0.0648 0.208277,-0.13391 0.312125,-0.20723 0.103849,-0.0733 0.207589,-0.15095 0.310576,-0.23254 0.102987,-0.0816 0.205574,-0.16718 0.307475,-0.25683 0.1019,-0.0897 0.203268,-0.18363 0.303857,-0.28112 0.100589,-0.0975 0.200153,-0.19875 0.299207,-0.30386 0.09905,-0.10511 0.197263,-0.21408 0.294555,-0.32659 0.194585,-0.22503 0.385348,-0.46446 0.571542,-0.71779 0.186193,-0.25333 0.368149,-0.52057 0.544152,-0.80047 0.176004,-0.27989 0.346032,-0.57223 0.510047,-0.87695 0.164015,-0.30471 0.321577,-0.6215 0.471806,-0.94929 0.150228,-0.3278 0.293236,-0.66683 0.42788,-1.01596 0.134645,-0.34913 0.26101,-0.70874 0.378272,-1.07745 0.117262,-0.36872 0.225413,-0.7467 0.323494,-1.13327 0.08881,-0.35002 0.16923,-0.70802 0.240813,-1.07332 0.07158,-0.3653 0.134526,-0.73756 0.189135,-1.11569 0.05461,-0.37814 0.100602,-0.76232 0.138493,-1.15084 0.03789,-0.38852 0.06746,-0.78176 0.08888,-1.17822 0.02143,-0.39646 0.03457,-0.79592 0.03979,-1.19786 0.0052,-0.40194 0.0025,-0.80632 -0.0083,-1.21129 -0.01074,-0.40498 -0.02937,-0.8109 -0.05581,-1.21647 -0.02644,-0.40557 -0.06043,-0.81069 -0.10232,-1.21439 -0.04189,-0.40371 -0.09175,-0.8057 -0.148828,-1.2051 -0.05708,-0.39939 -0.121249,-0.79644 -0.19327,-1.18907 -0.07202,-0.39264 -0.151522,-0.78085 -0.238228,-1.16427 -0.08671,-0.38343 -0.181016,-0.76201 -0.282153,-1.13378 -0.101137,-0.37177 -0.209214,-0.73685 -0.324528,-1.09451 -0.115314,-0.35766 -0.237666,-0.70793 -0.366903,-1.04903 -0.129237,-0.34111 -0.265338,-0.67319 -0.408244,-0.99529 -0.142906,-0.3221 -0.292748,-0.63418 -0.449068,-0.93483 -0.1262,-0.24272 -0.254742,-0.4744 -0.386023,-0.69505 -0.131281,-0.22064 -0.265152,-0.43033 -0.401526,-0.6289 -0.136373,-0.19857 -0.275551,-0.38573 -0.417029,-0.56224 -0.141477,-0.1765 -0.285421,-0.34216 -0.432015,-0.49661 -0.146593,-0.15444 -0.295796,-0.29807 -0.447518,-0.43046 -0.151721,-0.13239 -0.305642,-0.25346 -0.462504,-0.3638 -0.156861,-0.11035 -0.31651,-0.20988 -0.478523,-0.29818 -0.162013,-0.0883 -0.326851,-0.16525 -0.494027,-0.23151 -0.167176,-0.0662 -0.336661,-0.12166 -0.509013,-0.16588 -0.172351,-0.0442 -0.347494,-0.0776 -0.525032,-0.0997 -0.177539,-0.0222 -0.357282,-0.0334 -0.540019,-0.0336 -0.182737,-1.7e-4 -0.368091,0.0107 -0.556039,0.0325 -0.187947,0.0219 -0.378888,0.0548 -0.572058,0.0987 -0.19317,0.0439 -0.38864,0.099 -0.587044,0.16485 -0.198404,0.0659 -0.399414,0.14259 -0.603064,0.23048 -0.20365,0.0879 -0.410176,0.18673 -0.619084,0.29662 -0.258016,0.13573 -0.482663,0.24652 -0.675411,0.3328 -0.192747,0.0863 -0.353609,0.14815 -0.484724,0.18603 -0.06556,0.0189 -0.123318,0.0317 -0.17415,0.0388 -0.05083,0.007 -0.0947,0.008 -0.131258,0.004 -0.03656,-0.005 -0.06614,-0.0152 -0.08888,-0.0315 -0.02274,-0.0164 -0.03868,-0.0388 -0.04806,-0.0667 -0.05974,-0.17743 -0.304071,-1.03735 -0.543119,-1.91048 -0.119524,-0.43656 -0.316175,-1.12148 -0.536918,-1.87378 -0.220743,-0.7523 -0.465579,-1.57198 -0.681096,-2.27687 l -0.783931,-2.56315 -1.770435,-0.58808 c -0.322676,-0.10718 -0.6536,-0.22083 -0.99167,-0.34106 -0.338071,-0.12023 -0.683219,-0.24704 -1.034563,-0.37931 -0.702687,-0.26454 -1.429941,-0.5522 -2.172993,-0.85886 -0.743053,-0.30665 -1.502147,-0.63235 -2.268596,-0.97306 -0.766449,-0.34072 -1.540161,-0.69626 -2.313037,-1.06299 -0.772876,-0.36673 -1.544502,-0.74444 -2.306836,-1.12913 -0.762333,-0.38469 -1.51517,-0.77638 -2.249992,-1.17099 -0.734822,-0.3946 -1.451647,-0.79209 -2.141988,-1.18855 -0.345168,-0.19824 -0.684058,-0.39606 -1.014928,-0.59325 -0.33087,-0.19719 -0.65397,-0.39397 -0.96841,-0.58911 -0.39083,-0.24254 -0.77996,-0.48928 -1.16789,-0.74052 -0.38794,-0.25125 -0.77474,-0.50711 -1.15962,-0.76688 -0.38488,-0.25978 -0.76814,-0.52357 -1.1498,-0.79169 -0.38166,-0.26811 -0.76171,-0.54021 -1.13998,-0.81648 -0.37827,-0.27628 -0.75441,-0.55653 -1.12913,-0.84078 -0.37472,-0.28425 -0.7478,-0.5725 -1.1188,-0.86455 -0.371,-0.29204 -0.7403,-0.58814 -1.10742,-0.8878 -0.36712,-0.29965 -0.73195,-0.60294 -1.09503,-0.91002 -0.36307,-0.30708 -0.72427,-0.61791 -1.08314,-0.93224 -0.35886,-0.31433 -0.71573,-0.63204 -1.07021,-0.95343 -0.35449,-0.32139 -0.70633,-0.64635 -1.05627,-0.97462 -0.34994,-0.32827 -0.6976,-0.65981 -1.04283,-0.99477 -0.34524,-0.33497 -0.68852,-0.67345 -1.02888,-1.01493 -0.34036,-0.34147 -0.67805,-0.68623 -1.01337,-1.03404 -0.33533,-0.34781 -0.66827,-0.6987 -0.99839,-1.05265 -0.33013,-0.35395 -0.65762,-0.71082 -0.98237,-1.07074 -0.32476,-0.35991 -0.64661,-0.7226 -0.96583,-1.0883 -0.31923,-0.3657 -0.63577,-0.734581 -0.9493,-1.105877 -0.31353,-0.371296 -0.62406,-0.745185 -0.93173,-1.121896 -0.23599,-0.288958 -0.46879,-0.580765 -0.70125,-0.872815 -4.67159,0.84584 -8.19381,4.912848 -8.19381,9.835578 z"
       transform="rotate(-90)" /></g></svg>
